<mxfile host="app.diagrams.net" agent="Mozilla/5.0 (Windows NT 10.0; Win64; x64) AppleWebKit/537.36 (KHTML, like Gecko) Chrome/141.0.0.0 Safari/537.36 Edg/141.0.0.0" version="28.2.7">
  <diagram name="Page-1" id="E2gz8uFYAr8J8zn2hRwk">
    <mxGraphModel dx="778" dy="540" grid="1" gridSize="10" guides="1" tooltips="1" connect="1" arrows="1" fold="1" page="1" pageScale="1" pageWidth="850" pageHeight="1100" math="0" shadow="0">
      <root>
        <mxCell id="0" />
        <mxCell id="1" parent="0" />
        <mxCell id="R8ObtvCodUNtSSs4DrKu-1" value="Start" style="shape=umlActor;verticalLabelPosition=bottom;verticalAlign=top;html=1;outlineConnect=0;" vertex="1" parent="1">
          <mxGeometry x="200" y="280" width="40" height="80" as="geometry" />
        </mxCell>
        <mxCell id="R8ObtvCodUNtSSs4DrKu-2" value="Chat with Chatbot" style="shape=callout;whiteSpace=wrap;html=1;perimeter=calloutPerimeter;" vertex="1" parent="1">
          <mxGeometry x="160" y="160" width="120" height="80" as="geometry" />
        </mxCell>
        <mxCell id="R8ObtvCodUNtSSs4DrKu-3" style="edgeStyle=orthogonalEdgeStyle;rounded=0;orthogonalLoop=1;jettySize=auto;html=1;entryX=0;entryY=0;entryDx=60;entryDy=80;entryPerimeter=0;" edge="1" parent="1" source="R8ObtvCodUNtSSs4DrKu-1" target="R8ObtvCodUNtSSs4DrKu-2">
          <mxGeometry relative="1" as="geometry" />
        </mxCell>
        <mxCell id="R8ObtvCodUNtSSs4DrKu-24" style="edgeStyle=orthogonalEdgeStyle;rounded=0;orthogonalLoop=1;jettySize=auto;html=1;" edge="1" parent="1" target="R8ObtvCodUNtSSs4DrKu-23">
          <mxGeometry relative="1" as="geometry">
            <mxPoint x="580" y="400" as="sourcePoint" />
          </mxGeometry>
        </mxCell>
        <mxCell id="R8ObtvCodUNtSSs4DrKu-6" value="Prompt for SQL Query" style="rounded=1;whiteSpace=wrap;html=1;" vertex="1" parent="1">
          <mxGeometry x="520" y="360" width="120" height="40" as="geometry" />
        </mxCell>
        <mxCell id="R8ObtvCodUNtSSs4DrKu-15" style="edgeStyle=orthogonalEdgeStyle;rounded=0;orthogonalLoop=1;jettySize=auto;html=1;" edge="1" parent="1" source="R8ObtvCodUNtSSs4DrKu-12" target="R8ObtvCodUNtSSs4DrKu-14">
          <mxGeometry relative="1" as="geometry" />
        </mxCell>
        <mxCell id="R8ObtvCodUNtSSs4DrKu-12" value="Embed question" style="rounded=1;whiteSpace=wrap;html=1;" vertex="1" parent="1">
          <mxGeometry x="320" y="160" width="120" height="40" as="geometry" />
        </mxCell>
        <mxCell id="R8ObtvCodUNtSSs4DrKu-13" value="" style="endArrow=classic;html=1;rounded=0;exitX=0;exitY=0;exitDx=120;exitDy=25;exitPerimeter=0;entryX=0;entryY=0.5;entryDx=0;entryDy=0;" edge="1" parent="1" source="R8ObtvCodUNtSSs4DrKu-2" target="R8ObtvCodUNtSSs4DrKu-12">
          <mxGeometry width="50" height="50" relative="1" as="geometry">
            <mxPoint x="520" y="310" as="sourcePoint" />
            <mxPoint x="570" y="260" as="targetPoint" />
          </mxGeometry>
        </mxCell>
        <mxCell id="R8ObtvCodUNtSSs4DrKu-17" style="edgeStyle=orthogonalEdgeStyle;rounded=0;orthogonalLoop=1;jettySize=auto;html=1;entryX=0;entryY=0.5;entryDx=0;entryDy=0;" edge="1" parent="1" source="R8ObtvCodUNtSSs4DrKu-14" target="R8ObtvCodUNtSSs4DrKu-16">
          <mxGeometry relative="1" as="geometry" />
        </mxCell>
        <mxCell id="R8ObtvCodUNtSSs4DrKu-14" value="Vector search for SQL query" style="rounded=1;whiteSpace=wrap;html=1;" vertex="1" parent="1">
          <mxGeometry x="480" y="160" width="120" height="40" as="geometry" />
        </mxCell>
        <mxCell id="R8ObtvCodUNtSSs4DrKu-21" style="edgeStyle=orthogonalEdgeStyle;rounded=0;orthogonalLoop=1;jettySize=auto;html=1;entryX=0.5;entryY=0;entryDx=0;entryDy=0;" edge="1" parent="1" source="R8ObtvCodUNtSSs4DrKu-16" target="R8ObtvCodUNtSSs4DrKu-20">
          <mxGeometry relative="1" as="geometry">
            <Array as="points">
              <mxPoint x="674" y="250" />
              <mxPoint x="780" y="250" />
            </Array>
          </mxGeometry>
        </mxCell>
        <mxCell id="R8ObtvCodUNtSSs4DrKu-66" style="edgeStyle=orthogonalEdgeStyle;rounded=0;orthogonalLoop=1;jettySize=auto;html=1;entryX=0.5;entryY=0;entryDx=0;entryDy=0;" edge="1" parent="1" source="R8ObtvCodUNtSSs4DrKu-16" target="R8ObtvCodUNtSSs4DrKu-62">
          <mxGeometry relative="1" as="geometry" />
        </mxCell>
        <mxCell id="R8ObtvCodUNtSSs4DrKu-16" value="Found?" style="rhombus;whiteSpace=wrap;html=1;" vertex="1" parent="1">
          <mxGeometry x="640" y="147.5" width="67.5" height="65" as="geometry" />
        </mxCell>
        <mxCell id="R8ObtvCodUNtSSs4DrKu-19" value="No" style="text;html=1;whiteSpace=wrap;strokeColor=none;fillColor=none;align=center;verticalAlign=middle;rounded=0;" vertex="1" parent="1">
          <mxGeometry x="610" y="210" width="60" height="30" as="geometry" />
        </mxCell>
        <mxCell id="R8ObtvCodUNtSSs4DrKu-26" style="edgeStyle=orthogonalEdgeStyle;rounded=0;orthogonalLoop=1;jettySize=auto;html=1;" edge="1" parent="1" source="R8ObtvCodUNtSSs4DrKu-20" target="R8ObtvCodUNtSSs4DrKu-25">
          <mxGeometry relative="1" as="geometry" />
        </mxCell>
        <mxCell id="R8ObtvCodUNtSSs4DrKu-20" value="Fetch SQL Query" style="rounded=1;whiteSpace=wrap;html=1;" vertex="1" parent="1">
          <mxGeometry x="720" y="280" width="120" height="40" as="geometry" />
        </mxCell>
        <mxCell id="R8ObtvCodUNtSSs4DrKu-22" value="Yes" style="text;html=1;whiteSpace=wrap;strokeColor=none;fillColor=none;align=center;verticalAlign=middle;rounded=0;" vertex="1" parent="1">
          <mxGeometry x="680" y="212.5" width="60" height="30" as="geometry" />
        </mxCell>
        <mxCell id="R8ObtvCodUNtSSs4DrKu-35" style="edgeStyle=orthogonalEdgeStyle;rounded=0;orthogonalLoop=1;jettySize=auto;html=1;entryX=0;entryY=0.5;entryDx=0;entryDy=0;" edge="1" parent="1" source="R8ObtvCodUNtSSs4DrKu-23" target="R8ObtvCodUNtSSs4DrKu-34">
          <mxGeometry relative="1" as="geometry">
            <mxPoint x="580" y="540" as="targetPoint" />
          </mxGeometry>
        </mxCell>
        <mxCell id="R8ObtvCodUNtSSs4DrKu-36" style="edgeStyle=orthogonalEdgeStyle;rounded=0;orthogonalLoop=1;jettySize=auto;html=1;entryX=1;entryY=0.5;entryDx=0;entryDy=0;" edge="1" parent="1" source="R8ObtvCodUNtSSs4DrKu-23" target="R8ObtvCodUNtSSs4DrKu-33">
          <mxGeometry relative="1" as="geometry" />
        </mxCell>
        <mxCell id="R8ObtvCodUNtSSs4DrKu-23" value="Execute SQL query" style="rounded=1;whiteSpace=wrap;html=1;" vertex="1" parent="1">
          <mxGeometry x="520" y="440" width="120" height="40" as="geometry" />
        </mxCell>
        <mxCell id="R8ObtvCodUNtSSs4DrKu-32" style="edgeStyle=orthogonalEdgeStyle;rounded=0;orthogonalLoop=1;jettySize=auto;html=1;" edge="1" parent="1" source="R8ObtvCodUNtSSs4DrKu-25" target="R8ObtvCodUNtSSs4DrKu-30">
          <mxGeometry relative="1" as="geometry" />
        </mxCell>
        <mxCell id="R8ObtvCodUNtSSs4DrKu-25" value="Execute SQL Query" style="rounded=1;whiteSpace=wrap;html=1;" vertex="1" parent="1">
          <mxGeometry x="720" y="360" width="120" height="40" as="geometry" />
        </mxCell>
        <mxCell id="R8ObtvCodUNtSSs4DrKu-50" style="edgeStyle=orthogonalEdgeStyle;rounded=0;orthogonalLoop=1;jettySize=auto;html=1;entryX=0.5;entryY=0;entryDx=0;entryDy=0;" edge="1" parent="1" source="R8ObtvCodUNtSSs4DrKu-30" target="R8ObtvCodUNtSSs4DrKu-43">
          <mxGeometry relative="1" as="geometry" />
        </mxCell>
        <mxCell id="R8ObtvCodUNtSSs4DrKu-30" value="Convert data from table to text" style="rounded=1;whiteSpace=wrap;html=1;" vertex="1" parent="1">
          <mxGeometry x="720" y="440" width="120" height="40" as="geometry" />
        </mxCell>
        <mxCell id="R8ObtvCodUNtSSs4DrKu-38" style="edgeStyle=orthogonalEdgeStyle;rounded=0;orthogonalLoop=1;jettySize=auto;html=1;" edge="1" parent="1" source="R8ObtvCodUNtSSs4DrKu-33" target="R8ObtvCodUNtSSs4DrKu-37">
          <mxGeometry relative="1" as="geometry">
            <Array as="points">
              <mxPoint x="460" y="590" />
              <mxPoint x="460" y="590" />
            </Array>
          </mxGeometry>
        </mxCell>
        <mxCell id="R8ObtvCodUNtSSs4DrKu-33" value="Embed SQL Query" style="rounded=1;whiteSpace=wrap;html=1;" vertex="1" parent="1">
          <mxGeometry x="400" y="520" width="120" height="40" as="geometry" />
        </mxCell>
        <mxCell id="R8ObtvCodUNtSSs4DrKu-41" style="edgeStyle=orthogonalEdgeStyle;rounded=0;orthogonalLoop=1;jettySize=auto;html=1;entryX=0.5;entryY=0;entryDx=0;entryDy=0;" edge="1" parent="1" source="R8ObtvCodUNtSSs4DrKu-34" target="R8ObtvCodUNtSSs4DrKu-43">
          <mxGeometry relative="1" as="geometry">
            <mxPoint x="660" y="600" as="targetPoint" />
          </mxGeometry>
        </mxCell>
        <mxCell id="R8ObtvCodUNtSSs4DrKu-34" value="Convert data from table to text" style="rounded=1;whiteSpace=wrap;html=1;" vertex="1" parent="1">
          <mxGeometry x="600" y="520" width="120" height="40" as="geometry" />
        </mxCell>
        <mxCell id="R8ObtvCodUNtSSs4DrKu-37" value="Send embedding to vector db" style="rounded=1;whiteSpace=wrap;html=1;" vertex="1" parent="1">
          <mxGeometry x="400" y="640" width="120" height="40" as="geometry" />
        </mxCell>
        <mxCell id="R8ObtvCodUNtSSs4DrKu-52" style="edgeStyle=orthogonalEdgeStyle;rounded=0;orthogonalLoop=1;jettySize=auto;html=1;entryX=1;entryY=0.5;entryDx=0;entryDy=0;" edge="1" parent="1" source="R8ObtvCodUNtSSs4DrKu-43" target="R8ObtvCodUNtSSs4DrKu-51">
          <mxGeometry relative="1" as="geometry" />
        </mxCell>
        <mxCell id="R8ObtvCodUNtSSs4DrKu-55" style="edgeStyle=orthogonalEdgeStyle;rounded=0;orthogonalLoop=1;jettySize=auto;html=1;entryX=0.5;entryY=0;entryDx=0;entryDy=0;" edge="1" parent="1" source="R8ObtvCodUNtSSs4DrKu-43" target="R8ObtvCodUNtSSs4DrKu-54">
          <mxGeometry relative="1" as="geometry" />
        </mxCell>
        <mxCell id="R8ObtvCodUNtSSs4DrKu-43" value="Chunk data" style="rounded=1;whiteSpace=wrap;html=1;" vertex="1" parent="1">
          <mxGeometry x="680" y="600" width="120" height="40" as="geometry" />
        </mxCell>
        <mxCell id="R8ObtvCodUNtSSs4DrKu-53" style="edgeStyle=orthogonalEdgeStyle;rounded=0;orthogonalLoop=1;jettySize=auto;html=1;entryX=1;entryY=0.5;entryDx=0;entryDy=0;" edge="1" parent="1" source="R8ObtvCodUNtSSs4DrKu-51" target="R8ObtvCodUNtSSs4DrKu-37">
          <mxGeometry relative="1" as="geometry" />
        </mxCell>
        <mxCell id="R8ObtvCodUNtSSs4DrKu-51" value="Embed data" style="rounded=1;whiteSpace=wrap;html=1;" vertex="1" parent="1">
          <mxGeometry x="560" y="640" width="120" height="40" as="geometry" />
        </mxCell>
        <mxCell id="R8ObtvCodUNtSSs4DrKu-56" style="edgeStyle=orthogonalEdgeStyle;rounded=0;orthogonalLoop=1;jettySize=auto;html=1;" edge="1" parent="1" source="R8ObtvCodUNtSSs4DrKu-54">
          <mxGeometry relative="1" as="geometry">
            <mxPoint x="220" y="490" as="targetPoint" />
          </mxGeometry>
        </mxCell>
        <mxCell id="R8ObtvCodUNtSSs4DrKu-54" value="Send data to chatbot" style="rounded=1;whiteSpace=wrap;html=1;" vertex="1" parent="1">
          <mxGeometry x="680" y="760" width="120" height="40" as="geometry" />
        </mxCell>
        <mxCell id="R8ObtvCodUNtSSs4DrKu-59" style="edgeStyle=orthogonalEdgeStyle;rounded=0;orthogonalLoop=1;jettySize=auto;html=1;" edge="1" parent="1" source="R8ObtvCodUNtSSs4DrKu-58">
          <mxGeometry relative="1" as="geometry">
            <mxPoint x="220" y="390" as="targetPoint" />
          </mxGeometry>
        </mxCell>
        <mxCell id="R8ObtvCodUNtSSs4DrKu-58" value="Chabot Reponse" style="rounded=1;whiteSpace=wrap;html=1;" vertex="1" parent="1">
          <mxGeometry x="160" y="440" width="120" height="40" as="geometry" />
        </mxCell>
        <mxCell id="R8ObtvCodUNtSSs4DrKu-60" value="Retrieve Schema" style="rounded=1;whiteSpace=wrap;html=1;" vertex="1" parent="1">
          <mxGeometry x="440" y="280" width="80" height="40" as="geometry" />
        </mxCell>
        <mxCell id="R8ObtvCodUNtSSs4DrKu-61" value="MySQL Dialect" style="rounded=1;whiteSpace=wrap;html=1;" vertex="1" parent="1">
          <mxGeometry x="520" y="280" width="80" height="40" as="geometry" />
        </mxCell>
        <mxCell id="R8ObtvCodUNtSSs4DrKu-62" value="Prompt meaning in english" style="rounded=1;whiteSpace=wrap;html=1;" vertex="1" parent="1">
          <mxGeometry x="600" y="280" width="80" height="40" as="geometry" />
        </mxCell>
        <mxCell id="R8ObtvCodUNtSSs4DrKu-63" style="edgeStyle=orthogonalEdgeStyle;rounded=0;orthogonalLoop=1;jettySize=auto;html=1;entryX=0.328;entryY=-0.017;entryDx=0;entryDy=0;entryPerimeter=0;" edge="1" parent="1" source="R8ObtvCodUNtSSs4DrKu-61" target="R8ObtvCodUNtSSs4DrKu-6">
          <mxGeometry relative="1" as="geometry" />
        </mxCell>
        <mxCell id="R8ObtvCodUNtSSs4DrKu-64" style="edgeStyle=orthogonalEdgeStyle;rounded=0;orthogonalLoop=1;jettySize=auto;html=1;entryX=0.7;entryY=-0.117;entryDx=0;entryDy=0;entryPerimeter=0;" edge="1" parent="1" source="R8ObtvCodUNtSSs4DrKu-62" target="R8ObtvCodUNtSSs4DrKu-6">
          <mxGeometry relative="1" as="geometry" />
        </mxCell>
        <mxCell id="R8ObtvCodUNtSSs4DrKu-65" style="edgeStyle=orthogonalEdgeStyle;rounded=0;orthogonalLoop=1;jettySize=auto;html=1;entryX=0.189;entryY=0.067;entryDx=0;entryDy=0;entryPerimeter=0;" edge="1" parent="1" source="R8ObtvCodUNtSSs4DrKu-60" target="R8ObtvCodUNtSSs4DrKu-6">
          <mxGeometry relative="1" as="geometry" />
        </mxCell>
        <mxCell id="R8ObtvCodUNtSSs4DrKu-67" value="" style="endArrow=classic;html=1;rounded=0;exitX=-0.133;exitY=0.917;exitDx=0;exitDy=0;exitPerimeter=0;entryX=0.5;entryY=0;entryDx=0;entryDy=0;" edge="1" parent="1" source="R8ObtvCodUNtSSs4DrKu-22" target="R8ObtvCodUNtSSs4DrKu-60">
          <mxGeometry width="50" height="50" relative="1" as="geometry">
            <mxPoint x="520" y="300" as="sourcePoint" />
            <mxPoint x="400" y="240" as="targetPoint" />
            <Array as="points">
              <mxPoint x="480" y="240" />
            </Array>
          </mxGeometry>
        </mxCell>
        <mxCell id="R8ObtvCodUNtSSs4DrKu-68" value="" style="endArrow=classic;html=1;rounded=0;entryX=0.5;entryY=0;entryDx=0;entryDy=0;" edge="1" parent="1">
          <mxGeometry width="50" height="50" relative="1" as="geometry">
            <mxPoint x="670" y="240" as="sourcePoint" />
            <mxPoint x="564" y="280" as="targetPoint" />
            <Array as="points">
              <mxPoint x="564" y="240" />
            </Array>
          </mxGeometry>
        </mxCell>
        <mxCell id="R8ObtvCodUNtSSs4DrKu-69" value="" style="endArrow=classic;html=1;rounded=0;exitX=0.5;exitY=0;exitDx=0;exitDy=0;exitPerimeter=0;" edge="1" parent="1" source="R8ObtvCodUNtSSs4DrKu-2">
          <mxGeometry width="50" height="50" relative="1" as="geometry">
            <mxPoint x="520" y="300" as="sourcePoint" />
            <mxPoint x="220" y="90" as="targetPoint" />
          </mxGeometry>
        </mxCell>
        <mxCell id="R8ObtvCodUNtSSs4DrKu-70" value="Store prompt to variable" style="rounded=1;whiteSpace=wrap;html=1;" vertex="1" parent="1">
          <mxGeometry x="160" y="40" width="120" height="40" as="geometry" />
        </mxCell>
      </root>
    </mxGraphModel>
  </diagram>
</mxfile>
